#!OML:ASF X:\für Bonn\!DataBase\2005_08_12_Daniel\c3d\Daniel.ASF
:FULLY-SPECIFIED
:DEGREES
62
root 4.51999 17.2863 1.57142 -120.083 -86.2146 122.503
lowerback 35.0112 2.01967 -3.41287
upperback 10.6599 -0.430674 -4.63473
thorax -5.97523 -0.697909 -2.85587
lowerneck 2.25454 -0.781539 0.555588
upperneck 8.7636 -1.5215 4.40775
head 2.41519 -0.700188 1.28427
rclavicle 3.18055e-015 -3.02153e-014
rhumerus -9.68618 12.9178 -101.467
rradius 44.767
rwrist 21.9692
rhand -42.9741 8.73029
rfingers 7.12502
rthumb -15.8334 339.358
lclavicle 3.18055e-015 -3.02153e-014
lhumerus -190.168 198.012 -78.6383
lradius 46.4096
lwrist 21.3276
lhand -27.337 13.3251
lfingers 7.12502
lthumb -0.745546 43.3035
rfemur -16.2598 8.90807 5.20652
rtibia 27.2214
rfoot 342.053 -11.7468
rtoes -7.93733
lfemur -23.429 -21.0571 -17.5987
ltibia 35.7072
lfoot -21.4861 9.73287
ltoes 1.7684
63
root 4.53026 17.2942 1.53768 -115.888 -86.3859 118.564
lowerback 35.0796 1.9764 -3.38982
upperback 10.7198 -0.478524 -4.60951
thorax -5.93558 -0.721683 -2.82505
lowerneck 2.05613 -0.833792 0.387581
upperneck 8.66637 -1.60206 4.64757
head 2.42588 -0.736561 1.38913
rclavicle -1.59028e-015 -2.22639e-014
rhumerus -10.0209 13.1526 -101.523
rradius 45.6446
rwrist 21.7127
rhand -43.6128 8.82747
rfingers 7.12502
rthumb -16.4484 339.505
lclavicle -1.59028e-015 -2.22639e-014
lhumerus -190.259 198.189 -78.5802
lradius 46.9609
lwrist 21.5142
lhand -27.6143 13.1841
lfingers 7.12502
lthumb -1.01335 43.1614
rfemur -16.3148 9.28813 5.32676
rtibia 27.0493
rfoot 341.585 -12.3964
rtoes -7.63282
lfemur -23.7264 -21.3107 -17.3051
ltibia 35.5083
lfoot -21.314 9.75313
ltoes 1.70601
64
root 4.53935 17.3027 1.50286 -111.53 -86.5497 114.476
lowerback 35.1429 1.93975 -3.34817
upperback 10.7714 -0.508792 -4.56918
thorax -5.90229 -0.736468 -2.79435
lowerneck 1.85677 -0.895675 0.22667
upperneck 8.53269 -1.68896 4.84768
head 2.42463 -0.77671 1.4798
rclavicle 8.74653e-015 -6.36111e-015
rhumerus -10.3862 13.3742 -101.565
rradius 46.5262
rwrist 21.4867
rhand -44.1786 8.94399
rfingers 7.12502
rthumb -16.9931 339.667
lclavicle 8.74653e-015 -6.36111e-015
lhumerus -190.378 198.363 -78.4859
lradius 47.5292
lwrist 21.7443
lhand -27.9076 12.945
lfingers 7.12502
lthumb -1.29666 42.9208
rfemur -16.4026 9.68101 5.46147
rtibia 26.8934
rfoot 341.13 -13.0542
rtoes -7.47729
lfemur -24.0508 -21.5096 -16.9898
ltibia 35.3201
lfoot -21.1299 9.75315
ltoes 1.51848
65
root 4.54811 17.31 1.46786 -106.44 -86.7057 109.612
lowerback 35.2476 1.881 -3.30851
upperback 10.8354 -0.571181 -4.523
thorax -5.87105 -0.767681 -2.74518
lowerneck 1.59631 -0.935668 0.0595969
upperneck 8.40585 -1.74614 5.03793
head 2.43619 -0.801329 1.56902
rclavicle 2.14687e-014 7.95139e-015
rhumerus -10.7933 13.7595 -101.583
rradius 47.4705
rwrist 21.2081
rhand -44.6424 9.08317
rfingers 7.12502
rthumb -17.4396 339.845
lclavicle 2.14687e-014 7.95139e-015
lhumerus -190.486 198.487 -78.403
lradius 48.1134
lwrist 21.962
lhand -28.2088 12.7852
lfingers 7.12502
lthumb -1.58756 42.759
rfemur -16.4625 10.0367 5.59613
rtibia 26.7729
rfoot 340.663 -13.6347
rtoes -7.24643
lfemur -24.3232 -21.7768 -16.6761
ltibia 35.1256
lfoot -20.9657 9.76442
ltoes 1.47136
66
root 4.55643 17.3185 1.43207 -101.118 -86.8526 104.503
lowerback 35.3876 1.82284 -3.23924
upperback 10.8805 -0.623817 -4.46985
thorax -5.87262 -0.793112 -2.70776
lowerneck 1.31913 -0.982366 -0.111095
upperneck 8.29549 -1.81191 5.21881
head 2.45684 -0.829888 1.65603
rclavicle 1.27222e-014 3.10104e-014
rhumerus -11.2873 14.321 -101.563
rradius 48.5207
rwrist 20.8227
rhand -45.1647 9.08245
rfingers 7.12502
rthumb -17.9421 339.89
lclavicle 1.27222e-014 3.10104e-014
lhumerus -190.66 198.623 -78.2949
lradius 48.7173
lwrist 22.2349
lhand -28.5152 12.5649
lfingers 7.12502
lthumb -1.88349 42.5364
rfemur -16.5269 10.3842 5.75704
rtibia 26.6686
rfoot 340.196 -14.2206
rtoes -7.06947
lfemur -24.5896 -21.9869 -16.3505
ltibia 34.9473
lfoot -20.7755 9.76473
ltoes 1.34039
67
root 4.56494 17.3259 1.39623 -95.1462 -86.9546 98.7578
lowerback 35.517 1.75943 -3.18413
upperback 10.9303 -0.687879 -4.42621
thorax -5.86553 -0.824144 -2.66871
lowerneck 1.04602 -1.02469 -0.236736
upperneck 8.12864 -1.86607 5.3753
head 2.45697 -0.852486 1.72706
rclavicle 0 -1.74931e-014
rhumerus -11.8107 14.8395 -101.572
rradius 49.5691
rwrist 20.5424
rhand -45.6191 9.16884
rfingers 7.12502
rthumb -18.3793 340.017
lclavicle 0 -1.74931e-014
lhumerus -190.823 198.72 -78.1989
lradius 49.3068
lwrist 22.4548
lhand -28.7281 12.4196
lfingers 7.12502
lthumb -2.08913 42.3891
rfemur -16.633 10.6204 5.89393
rtibia 26.6017
rfoot 339.807 -14.687
rtoes -6.97847
lfemur -24.8872 -22.2641 -16.0213
ltibia 34.7809
lfoot -20.6288 9.78149
ltoes 1.27694
68
root 4.57322 17.3325 1.36021 -89.0089 -87.0774 92.8326
lowerback 35.6766 1.68543 -3.08622
upperback 10.9818 -0.750625 -4.36052
thorax -5.86712 -0.854648 -2.62933
lowerneck 0.66514 -1.05845 -0.381135
upperneck 7.9939 -1.90862 5.51074
head 2.48712 -0.86779 1.79506
rclavicle -4.77083e-015 -3.26007e-014
rhumerus -12.2843 15.3146 -101.595
rradius 50.5385
rwrist 20.3479
rhand -46.0653 9.33855
rfingers 7.12502
rthumb -18.8085 340.228
lclavicle -4.77083e-015 -3.26007e-014
lhumerus -190.968 198.783 -78.0822
lradius 49.8747
lwrist 22.6617
lhand -28.8277 12.2398
lfingers 7.12502
lthumb -2.18534 42.2083
rfemur -16.7467 10.8336 6.09038
rtibia 26.5714
rfoot 339.408 -15.1115
rtoes -6.84858
lfemur -25.188 -22.4797 -15.645
ltibia 34.6449
lfoot -20.4599 9.7765
ltoes 1.15937
69
root 4.58125 17.3376 1.32426 -82.6311 -87.1458 86.7213
lowerback 35.8969 1.61019 -3.01931
upperback 10.9016 -0.827074 -4.29222
thorax -5.90215 -0.887425 -2.59214
lowerneck 0.365175 -1.0894 -0.518368
upperneck 7.79685 -1.9427 5.64762
head 2.48181 -0.880881 1.86209
rclavicle 3.18055e-014 -8.74653e-015
rhumerus -12.7867 15.6706 -101.66
rradius 51.4727
rwrist 20.3447
rhand -46.4345 9.51592
rfingers 7.12502
rthumb -19.1636 340.44
lclavicle 3.18055e-014 -8.74653e-015
lhumerus -191.194 198.803 -77.9452
lradius 50.4893
lwrist 22.8771
lhand -28.8786 12.2291
lfingers 7.12502
lthumb -2.23442 42.1972
rfemur -16.9573 10.948 6.25044
rtibia 26.5911
rfoot 339.024 -15.4345
rtoes -6.80552
lfemur -25.5642 -22.6964 -15.2646
ltibia 34.5319
lfoot -20.3093 9.78003
ltoes 1.05642
70
root 4.59051 17.3414 1.2882 -76.1296 -87.1985 80.4757
lowerback 36.0687 1.5286 -2.93094
upperback 10.8928 -0.898745 -4.23272
thorax -5.9742 -0.918931 -2.54981
lowerneck 0.199178 -1.1118 -0.650957
upperneck 7.4168 -1.95184 5.78002
head 2.39055 -0.886119 1.92592
rclavicle 2.38542e-014 5.08889e-014
rhumerus -13.2867 16.0387 -101.724
rradius 52.3356
rwrist 20.4478
rhand -46.8533 9.63709
rfingers 7.12502
rthumb -19.5662 340.602
lclavicle 2.38542e-014 5.08889e-014
lhumerus -191.355 198.846 -77.8183
lradius 50.9857
lwrist 23.1307
lhand -28.8454 12.3136
lfingers 7.12502
lthumb -2.20236 42.2819
rfemur -17.2038 10.9922 6.43035
rtibia 26.6491
rfoot 338.708 -15.7093
rtoes -6.8592
lfemur -25.9585 -22.9115 -14.862
ltibia 34.4625
lfoot -20.1804 9.78235
ltoes 0.956967
71
root 4.59929 17.346 1.25301 -69.9595 -87.2262 74.5814
lowerback 36.2166 1.4508 -2.82095
upperback 10.8888 -0.958044 -4.18844
thorax -6.03304 -0.94417 -2.53915
lowerneck 0.234804 -1.14944 -0.72268
upperneck 6.75291 -1.96049 5.87762
head 2.16828 -0.89753 1.96527
rclavicle 3.81667e-014 5.80451e-014
rhumerus -13.7471 16.3516 -101.803
rradius 53.1128
rwrist 20.579
rhand -47.2197 9.83441
rfingers 7.12502
rthumb -19.9185 340.835
lclavicle 3.81667e-014 5.80451e-014
lhumerus -191.479 198.905 -77.7043
lradius 51.4541
lwrist 23.3991
lhand -28.7386 12.5905
lfingers 7.12502
lthumb -2.09922 42.5599
rfemur -17.5167 11.0111 6.60325
rtibia 26.764
rfoot 338.416 -15.9435
rtoes -6.92416
lfemur -26.3896 -23.0451 -14.4571
ltibia 34.4232
lfoot -20.0405 9.7412
ltoes 0.844798
